<svg xmlns="http://www.w3.org/2000/svg" style="display: none;">
  <defs>
    <!-- Gaming Icons -->
    <symbol id="icon-gamepad" viewBox="0 0 24 24">
      <path fill="currentColor" d="M7.97 16c.85 0 1.61-.36 2.14-.93L12 13.17l1.89 1.9c.53.57 1.29.93 2.14.93 1.64 0 2.97-1.33 2.97-2.97 0-.85-.36-1.61-.93-2.14L16.17 9l1.9-1.89c.57-.53.93-1.29.93-2.14C19 3.33 17.67 2 16.03 2c-.85 0-1.61.36-2.14.93L12 4.83l-1.89-1.9C9.58 2.36 8.82 2 7.97 2 6.33 2 5 3.33 5 4.97c0 .85.36 1.61.93 2.14L7.83 9l-1.9 1.89c-.57.53-.93 1.29-.93 2.14C5 14.67 6.33 16 7.97 16z"/>
    </symbol>

    <symbol id="icon-trophy" viewBox="0 0 24 24">
      <path fill="currentColor" d="M7 4V2C7 1.45 7.45 1 8 1h8c.55 0 1 .45 1 1v2h1c1.1 0 2 .9 2 2v3c0 2.76-2.24 5-5 5h-.5c-.28 1.7-1.33 3.12-2.75 3.79V20h2c.55 0 1 .45 1 1s-.45 1-1 1H9c-.55 0-1-.45-1-1s.45-1 1-1h2v-2.21C9.58 16.12 8.53 14.7 8.25 13H7.75C4.99 13 2.75 10.76 2.75 8V5c0-1.1.9-2 2-2H7zM9 3v8.5c0 1.38 1.12 2.5 2.5 2.5S14 12.88 14 11.5V3H9zM19 8c0 .55-.45 1-1 1h-.5V6H18c.55 0 1 .45 1 1v1zM5 8c0 .55.45 1 1 1h.5V6H6c-.55 0-1 .45-1 1v1z"/>
    </symbol>

    <symbol id="icon-diamond" viewBox="0 0 24 24">
      <path fill="currentColor" d="M6 2l2 6H4l2-6zm6 0l1 6h-2L10 2h2zm6 0l2 6h-4l2-6zM2 9h4l6 11L6 9H2zm6 0h8l-4 11L8 9zm10 0h4l-6 11 6-11z"/>
    </symbol>

    <symbol id="icon-fire" viewBox="0 0 24 24">
      <path fill="currentColor" d="M12.5 2C8.5 2 6 5.5 6 9c0 4.08 3.92 7 6 7s6-2.92 6-7c0-3.5-2.5-7-6.5-7zm2.5 9c0 1.38-1.12 2.5-2.5 2.5S10 12.38 10 11c0-1.38 1.12-2.5 2.5-2.5S15 9.62 15 11z"/>
    </symbol>

    <symbol id="icon-crown" viewBox="0 0 24 24">
      <path fill="currentColor" d="M5 16L3 4l5.5 7L12 4l3.5 7L21 4l-2 12H5zm2.7-2h8.6l.9-5.4-2.1 2.7L12 8.4l-3.1 2.9-2.1-2.7L7.7 14z"/>
    </symbol>

    <symbol id="icon-star" viewBox="0 0 24 24">
      <path fill="currentColor" d="M12 2l3.09 6.26L22 9.27l-5 4.87 1.18 6.88L12 17.77l-6.18 3.25L7 14.14 2 9.27l6.91-1.01L12 2z"/>
    </symbol>

    <symbol id="icon-shield" viewBox="0 0 24 24">
      <path fill="currentColor" d="M12 1L3 5v6c0 5.55 3.84 10.74 9 12 5.16-1.26 9-6.45 9-12V5l-9-4z"/>
    </symbol>

    <symbol id="icon-gem" viewBox="0 0 24 24">
      <path fill="currentColor" d="M6 2l2 6h8l2-6H6zm-2 8l6 10 6-10H4z"/>
    </symbol>

    <!-- UI Icons -->
    <symbol id="icon-menu" viewBox="0 0 24 24">
      <path fill="currentColor" d="M3 18h18v-2H3v2zm0-5h18v-2H3v2zm0-7v2h18V6H3z"/>
    </symbol>

    <symbol id="icon-close" viewBox="0 0 24 24">
      <path fill="currentColor" d="M19 6.41L17.59 5 12 10.59 6.41 5 5 6.41 10.59 12 5 17.59 6.41 19 12 13.41 17.59 19 19 17.59 13.41 12z"/>
    </symbol>

    <symbol id="icon-search" viewBox="0 0 24 24">
      <path fill="currentColor" d="M15.5 14h-.79l-.28-.27C15.41 12.59 16 11.11 16 9.5 16 5.91 13.09 3 9.5 3S3 5.91 3 9.5 5.91 16 9.5 16c1.61 0 3.09-.59 4.23-1.57l.27.28v.79l5 4.99L20.49 19l-4.99-5zm-6 0C7.01 14 5 11.99 5 9.5S7.01 5 9.5 5 14 7.01 14 9.5 11.99 14 9.5 14z"/>
    </symbol>

    <symbol id="icon-cart" viewBox="0 0 24 24">
      <path fill="currentColor" d="M7 18c-1.1 0-2 .9-2 2s.9 2 2 2 2-.9 2-2-.9-2-2-2zM1 2v2h2l3.6 7.59-1.35 2.45c-.16.28-.25.61-.25.96 0 1.1.9 2 2 2h12v-2H7.42c-.14 0-.25-.11-.25-.25l.03-.12L8.1 13h7.45c.75 0 1.41-.41 1.75-1.03L21.7 4H5.21l-.94-2H1zm16 16c-1.1 0-2 .9-2 2s.9 2 2 2 2-.9 2-2-.9-2-2-2z"/>
    </symbol>

    <symbol id="icon-heart" viewBox="0 0 24 24">
      <path fill="currentColor" d="M12 21.35l-1.45-1.32C5.4 15.36 2 12.28 2 8.5 2 5.42 4.42 3 7.5 3c1.74 0 3.41.81 4.5 2.09C13.09 3.81 14.76 3 16.5 3 19.58 3 22 5.42 22 8.5c0 3.78-3.4 6.86-8.55 11.54L12 21.35z"/>
    </symbol>

    <symbol id="icon-check" viewBox="0 0 24 24">
      <path fill="currentColor" d="M9 16.17L4.83 12l-1.42 1.41L9 19 21 7l-1.41-1.41z"/>
    </symbol>

    <symbol id="icon-arrow-right" viewBox="0 0 24 24">
      <path fill="currentColor" d="M8.59 16.59L13.17 12 8.59 7.41 10 6l6 6-6 6z"/>
    </symbol>

    <symbol id="icon-arrow-left" viewBox="0 0 24 24">
      <path fill="currentColor" d="M15.41 16.59L10.83 12l4.58-4.59L14 6l-6 6 6 6z"/>
    </symbol>

    <symbol id="icon-arrow-up" viewBox="0 0 24 24">
      <path fill="currentColor" d="M7.41 15.41L12 10.83l4.59 4.58L18 14l-6-6-6 6z"/>
    </symbol>

    <symbol id="icon-arrow-down" viewBox="0 0 24 24">
      <path fill="currentColor" d="M7.41 8.59L12 13.17l4.59-4.58L18 10l-6 6-6-6z"/>
    </symbol>

    <!-- Social Icons -->
    <symbol id="icon-discord" viewBox="0 0 24 24">
      <path fill="currentColor" d="M20.317 4.37a19.791 19.791 0 0 0-4.885-1.515.074.074 0 0 0-.079.037c-.21.375-.444.864-.608 1.25a18.27 18.27 0 0 0-5.487 0 12.64 12.64 0 0 0-.617-1.25.077.077 0 0 0-.079-.037A19.736 19.736 0 0 0 3.677 4.37a.07.07 0 0 0-.032.027C.533 9.046-.32 13.58.099 18.057a.082.082 0 0 0 .031.057 19.9 19.9 0 0 0 5.993 3.03.078.078 0 0 0 .084-.028c.462-.63.874-1.295 1.226-1.994a.076.076 0 0 0-.041-.106 13.107 13.107 0 0 1-1.872-.892.077.077 0 0 1-.008-.128 10.2 10.2 0 0 0 .372-.292.074.074 0 0 1 .077-.01c3.928 1.793 8.18 1.793 12.062 0a.074.074 0 0 1 .078.01c.12.098.246.198.373.292a.077.077 0 0 1-.006.127 12.299 12.299 0 0 1-1.873.892.077.077 0 0 0-.041.107c.36.698.772 1.362 1.225 1.993a.076.076 0 0 0 .084.028 19.839 19.839 0 0 0 6.002-3.03.077.077 0 0 0 .032-.054c.5-5.177-.838-9.674-3.549-13.66a.061.061 0 0 0-.031-.03zM8.02 15.33c-1.183 0-2.157-1.085-2.157-2.419 0-1.333.956-2.419 2.157-2.419 1.21 0 2.176 1.096 2.157 2.42 0 1.333-.956 2.418-2.157 2.418zm7.975 0c-1.183 0-2.157-1.085-2.157-2.419 0-1.333.955-2.419 2.157-2.419 1.21 0 2.176 1.096 2.157 2.42 0 1.333-.946 2.418-2.157 2.418z"/>
    </symbol>

    <symbol id="icon-telegram" viewBox="0 0 24 24">
      <path fill="currentColor" d="M11.944 0A12 12 0 0 0 0 12a12 12 0 0 0 12 12 12 12 0 0 0 12-12A12 12 0 0 0 12 0a12 12 0 0 0-.056 0zm4.962 7.224c.1-.002.321.023.465.14a.506.506 0 0 1 .171.325c.016.093.036.306.02.472-.18 1.898-.962 6.502-1.36 8.627-.168.9-.499 1.201-.82 1.23-.696.065-1.225-.46-1.9-.902-1.056-.693-1.653-1.124-2.678-1.8-1.185-.78-.417-1.21.258-1.91.177-.184 3.247-2.977 3.307-3.23.007-.032.014-.15-.056-.212s-.174-.041-.249-.024c-.106.024-1.793 1.14-5.061 3.345-.48.33-.913.49-1.302.48-.428-.008-1.252-.241-1.865-.44-.752-.245-1.349-.374-1.297-.789.027-.216.325-.437.893-.663 3.498-1.524 5.83-2.529 6.998-3.014 3.332-1.386 4.025-1.627 4.476-1.635z"/>
    </symbol>

    <symbol id="icon-instagram" viewBox="0 0 24 24">
      <path fill="currentColor" d="M12 2.163c3.204 0 3.584.012 4.85.07 3.252.148 4.771 1.691 4.919 4.919.058 1.265.069 1.645.069 4.849 0 3.205-.012 3.584-.069 4.849-.149 3.225-1.664 4.771-4.919 4.919-1.266.058-1.644.07-4.85.07-3.204 0-3.584-.012-4.849-.07-3.26-.149-4.771-1.699-4.919-4.92-.058-1.265-.07-1.644-.07-4.849 0-3.204.013-3.583.07-4.849.149-3.227 1.664-4.771 4.919-4.919 1.266-.057 1.645-.069 4.849-.069zM12 0C8.741 0 8.333.014 7.053.072 2.695.272.273 2.69.073 7.052.014 8.333 0 8.741 0 12c0 3.259.014 3.668.072 4.948.2 4.358 2.618 6.78 6.98 6.98C8.333 23.986 8.741 24 12 24c3.259 0 3.668-.014 4.948-.072 4.354-.2 6.782-2.618 6.979-6.98.059-1.28.073-1.689.073-4.948 0-3.259-.014-3.667-.072-4.947-.196-4.354-2.617-6.78-6.979-6.98C15.668.014 15.259 0 12 0zm0 5.838a6.162 6.162 0 100 12.324 6.162 6.162 0 000-12.324zM12 16a4 4 0 110-8 4 4 0 010 8zm6.406-11.845a1.44 1.44 0 100 2.881 1.44 1.44 0 000-2.881z"/>
    </symbol>

    <symbol id="icon-youtube" viewBox="0 0 24 24">
      <path fill="currentColor" d="M23.498 6.186a3.016 3.016 0 0 0-2.122-2.136C19.505 3.545 12 3.545 12 3.545s-7.505 0-9.377.505A3.017 3.017 0 0 0 .502 6.186C0 8.07 0 12 0 12s0 3.93.502 5.814a3.016 3.016 0 0 0 2.122 2.136c1.871.505 9.376.505 9.376.505s7.505 0 9.377-.505a3.015 3.015 0 0 0 2.122-2.136C24 15.93 24 12 24 12s0-3.93-.502-5.814zM9.545 15.568V8.432L15.818 12l-6.273 3.568z"/>
    </symbol>

    <!-- Special Gaming Effects -->
    <symbol id="icon-lightning" viewBox="0 0 24 24">
      <path fill="currentColor" d="M11 21h-1l1-7H7.5c-.88 0-.33-.75-.31-.78C8.48 10.94 10.42 7.54 13.01 3h1l-1 7h3.51c.4 0 .62.19.4.66C15.97 14.06 14.03 17.46 11 21z"/>
    </symbol>

    <symbol id="icon-explosion" viewBox="0 0 24 24">
      <path fill="currentColor" d="M12 2C6.48 2 2 6.48 2 12s4.48 10 10 10 10-4.48 10-10S17.52 2 12 2zm-1 17.93c-3.94-.49-7-3.85-7-7.93 0-.62.08-1.21.21-1.79L9 15v1c0 1.1.9 2 2 2v1.93zm6.9-2.54c-.26-.81-1-1.39-1.9-1.39h-1v-3c0-.55-.45-1-1-1H8v-2h2c.55 0 1-.45 1-1V7h2c1.1 0 2-.9 2-2v-.41c2.93 1.19 5 4.06 5 7.41 0 2.08-.8 3.97-2.1 5.39z"/>
    </symbol>

    <symbol id="icon-magic" viewBox="0 0 24 24">
      <path fill="currentColor" d="M7.5 5.6L10 7 8.6 4.5 10 2 7.5 3.4 5 2l1.4 2.5L5 7zm12 9.8L17 14l1.4 2.5L17 19l2.5-1.4L22 19l-1.4-2.5L22 14zm-8.5 4.1L9 18l1.5 1.5L9 21l1.5-1.5L12 21l-1.5-1.5L12 18zm8.5-12L17 6l1.4 2.5L17 11l2.5-1.4L22 11l-1.4-2.5L22 6zm-1.5 3.1L16 9l1.5 1.5L16 12l1.5-1.5L19 12l-1.5-1.5L19 9z"/>
    </symbol>

    <!-- Energy/Power Icons -->
    <symbol id="icon-energy" viewBox="0 0 24 24">
      <path fill="currentColor" d="M15.67 4H14l-5.5 9h1.57L9.59 16H11l5.5-9H15.67z"/>
    </symbol>

    <symbol id="icon-power" viewBox="0 0 24 24">
      <path fill="currentColor" d="M13 3h-2v10h2V3zm4.83 2.17l-1.42 1.42C17.99 7.86 19 9.81 19 12c0 3.87-3.13 7-7 7s-7-3.13-7-7c0-2.19 1.01-4.14 2.58-5.42L6.17 5.17C4.23 6.82 3 9.26 3 12c0 4.97 4.03 9 9 9s9-4.03 9-9c0-2.74-1.23-5.18-3.17-6.83z"/>
    </symbol>
  </defs>
</svg>
